<?xml version="1.0" standalone="no"?>
<!DOCTYPE svg PUBLIC "-//W3C//DTD SVG 20010904//EN"
 "http://www.w3.org/TR/2001/REC-SVG-20010904/DTD/svg10.dtd">
<svg version="1.0" xmlns="http://www.w3.org/2000/svg"
 width="128.000000pt" height="128.000000pt" viewBox="0 0 128.000000 128.000000"
 preserveAspectRatio="xMidYMid meet">

<g transform="translate(0.000000,128.000000) scale(0.100000,-0.100000)"
fill="CurrentColor" stroke="none">
<path d="M10 1195 c-6 -8 -9 -23 -5 -35 6 -18 14 -20 89 -20 55 0 87 -4 94
-12 9 -12 172 -605 172 -625 0 -4 -15 -15 -33 -23 -35 -17 -77 -72 -77 -102 0
-35 32 -88 61 -103 15 -8 46 -15 68 -15 l41 0 -6 -42 c-16 -126 138 -197 223
-104 29 31 33 42 33 91 l0 55 113 0 112 0 -3 -50 c-5 -58 12 -90 61 -120 88
-54 206 21 193 124 -2 21 0 49 6 62 8 17 8 27 -2 39 -11 13 -65 15 -404 15
-292 0 -395 3 -404 12 -18 18 -14 56 7 68 13 6 158 10 404 10 l385 0 24 28
c17 21 35 79 72 245 55 240 54 255 -7 277 -19 6 -190 10 -473 10 l-443 0 -11
43 c-47 182 -52 187 -185 187 -69 0 -96 -4 -105 -15z m494 -312 c2 -10 8 -49
12 -86 l6 -68 -72 3 -73 3 -22 83 -22 82 83 0 c70 0 83 -3 88 -17z m236 -68
l0 -85 -69 0 -69 0 -6 33 c-3 17 -8 56 -12 85 l-7 52 82 0 81 0 0 -85z m236
28 c-14 -120 -8 -113 -87 -113 l-69 0 0 85 0 85 81 0 81 0 -6 -57z m219 15
c-4 -23 -13 -60 -19 -83 l-12 -40 -63 -3 -64 -3 7 63 c13 113 9 108 88 108
l70 0 -7 -42z m-650 -285 l11 -83 -52 0 c-29 0 -56 5 -59 10 -6 10 -45 144
-45 155 0 3 30 5 67 3 l68 -3 10 -82z m195 2 l0 -85 -54 0 -54 0 -6 48 c-4 26
-9 64 -12 85 l-6 37 66 0 66 0 0 -85z m210 75 c0 -5 -5 -43 -11 -85 l-11 -75
-54 0 -54 0 0 85 0 85 65 0 c36 0 65 -4 65 -10z m196 -7 c-3 -10 -10 -40 -16
-68 -19 -88 -16 -85 -72 -85 l-50 0 7 78 c4 42 9 80 12 85 2 4 31 7 64 7 53 0
60 -2 55 -17z m-566 -403 c23 -23 26 -49 7 -74 -16 -21 -60 -24 -82 -6 -23 19
-19 66 7 84 30 21 44 20 68 -4z m468 4 c51 -35 8 -117 -50 -95 -42 16 -50 59
-18 91 24 24 38 25 68 4z"/>
</g>
</svg>
